Coordinates
version=1
nRows=34
nColumns=38
inDegrees=no

Units are S.I. units (second, meters, Newtons, ...)
If the header above contains a line with 'inDegrees', this indicates whether rotational values are in degrees (yes) or radians (no).

endheader
time	pelvis_tilt	pelvis_list	pelvis_rotation	pelvis_tx	pelvis_ty	pelvis_tz	hip_flexion_r	hip_adduction_r	hip_rotation_r	knee_angle_r	ankle_angle_r	subtalar_angle_r	mtp_angle_r	hip_flexion_l	hip_adduction_l	hip_rotation_l	knee_angle_l	ankle_angle_l	subtalar_angle_l	mtp_angle_l	lumbar_extension	lumbar_bending	lumbar_rotation	arm_flex_r	arm_add_r	arm_rot_r	elbow_flex_r	pro_sup_r	wrist_flex_r	wrist_dev_r	arm_flex_l	arm_add_l	arm_rot_l	elbow_flex_l	pro_sup_l	wrist_flex_l	wrist_dev_l
0	2.92889	1.27628	-1.35237	0.765736	-0.397508	0.934981	-0.414783	0.118699	-0.0625684	0.0313649	-0.246109	0	0	0.268255	-0.19115	-0.167208	0.954051	-0.155721	0	0	-0.212442	0.0975452	0.351221	-0.296466	-0.955061	-0.0668914	1.66198	0.314047	0	0	0.74149	-0.464103	0.921051	1.09574	0.513359	0	0
0.01	2.92795	1.28916	-1.34296	0.765098	-0.389561	0.933144	-0.411646	0.1196	-0.0590536	0.0313466	-0.235304	0	0	0.263289	-0.143492	-0.0672312	0.858715	-0.117935	0	0	-0.189109	0.0755206	0.36694	-0.319649	-0.947112	-0.0764105	1.63348	0.309089	0	0	0.787143	-0.435266	0.985202	1.06351	0.497839	0	0
0.02	2.92421	1.29539	-1.33323	0.76441	-0.380688	0.931443	-0.418561	0.121522	-0.0567515	0.0255709	-0.229513	0	0	0.254267	-0.123243	-0.0240934	0.775082	-0.100786	0	0	-0.184446	0.0765742	0.362	-0.323321	-0.944075	-0.084848	1.63801	0.312005	0	0	0.790996	-0.435223	0.988351	1.062	0.493358	0	0
0.03	2.91499	1.29959	-1.31922	0.763721	-0.371152	0.929535	-0.428094	0.125125	-0.0573664	0.0198736	-0.223334	0	0	0.250551	-0.119274	-0.0210847	0.707891	-0.0907074	0	0	-0.180368	0.0799347	0.356059	-0.324261	-0.943434	-0.0886282	1.64326	0.313452	0	0	0.791205	-0.438451	0.987254	1.06485	0.490073	0	0
0.04	2.90165	1.30463	-1.30175	0.76299	-0.361313	0.92746	-0.436717	0.129425	-0.0585728	0.013997	-0.218483	0	0	0.250092	-0.120322	-0.0332801	0.648454	-0.0835163	0	0	-0.174597	0.084629	0.349254	-0.323394	-0.943539	-0.0897908	1.64862	0.31344	0	0	0.789097	-0.443436	0.984338	1.06928	0.487974	0	0
0.05	2.88619	1.31072	-1.28227	0.762154	-0.351275	0.925323	-0.443355	0.133476	-0.0600505	0.0100899	-0.213065	0	0	0.25036	-0.12142	-0.048197	0.591673	-0.0781936	0	0	-0.167386	0.0900285	0.340753	-0.319477	-0.94381	-0.0877126	1.65353	0.313349	0	0	0.784679	-0.450566	0.979649	1.07536	0.487267	0	0
0.06	2.86903	1.31741	-1.26163	0.761235	-0.341076	0.923264	-0.448244	0.136904	-0.0627584	0.00940882	-0.206433	0	0	0.250633	-0.121958	-0.0645824	0.538883	-0.0738401	0	0	-0.159082	0.0955362	0.33116	-0.311681	-0.944386	-0.0812171	1.65686	0.312983	0	0	0.778031	-0.459084	0.973278	1.08249	0.488333	0	0
0.07	2.86511	1.31278	-1.25417	0.760157	-0.331754	0.921808	-0.46474	0.139769	-0.0647016	0.00951477	-0.200507	0	0	0.238469	-0.122046	-0.0813058	0.492816	-0.0685217	0	0	-0.165558	0.100592	0.323017	-0.30205	-0.949422	-0.0752972	1.6611	0.310833	0	0	0.776862	-0.4655	0.967659	1.08904	0.487685	0	0
0.08	2.85444	1.31585	-1.24143	0.759127	-0.321622	0.920243	-0.471525	0.141066	-0.0662051	0.0131637	-0.195635	0	0	0.232763	-0.120544	-0.0938265	0.450536	-0.0657368	0	0	-0.161781	0.10492	0.31576	-0.294613	-0.95068	-0.0688644	1.66323	0.31044	0	0	0.771163	-0.472064	0.96084	1.09504	0.48774	0	0
0.09	2.84285	1.31881	-1.22901	0.758059	-0.311375	0.91872	-0.476466	0.14154	-0.0669096	0.0206276	-0.190103	0	0	0.22692	-0.1186	-0.100332	0.415415	-0.0655331	0	0	-0.157473	0.109259	0.309741	-0.286835	-0.951885	-0.061489	1.66413	0.311133	0	0	0.764905	-0.477482	0.953412	1.09971	0.488722	0	0
0.1	2.83071	1.3205	-1.21743	0.756971	-0.301054	0.917263	-0.480769	0.141417	-0.0668044	0.031966	-0.183791	0	0	0.221243	-0.117446	-0.102626	0.393339	-0.0669063	0	0	-0.154427	0.114047	0.305401	-0.279784	-0.953656	-0.0547468	1.6651	0.311236	0	0	0.758796	-0.481648	0.946377	1.10322	0.490796	0	0
0.11	2.82132	1.32049	-1.20967	0.755938	-0.290624	0.915934	-0.485622	0.140503	-0.0661312	0.0462105	-0.178602	0	0	0.216275	-0.116737	-0.103655	0.389461	-0.0692546	0	0	-0.15336	0.118252	0.303355	-0.275607	-0.955065	-0.0509028	1.66659	0.310972	0	0	0.753866	-0.484913	0.940722	1.1065	0.492175	0	0
0.12	2.81737	1.31899	-1.20786	0.754952	-0.280033	0.914796	-0.490937	0.138516	-0.0663157	0.0640653	-0.1729	0	0	0.210515	-0.114943	-0.102615	0.400897	-0.0741495	0	0	-0.154292	0.12119	0.302272	-0.272586	-0.956074	-0.0480957	1.66841	0.310635	0	0	0.749438	-0.48849	0.935569	1.11067	0.49375	0	0
0.13	2.81916	1.31667	-1.21194	0.753944	-0.269323	0.913848	-0.496234	0.135135	-0.0667377	0.0849272	-0.167244	0	0	0.203188	-0.111361	-0.0980834	0.421556	-0.0788388	0	0	-0.156458	0.122426	0.30159	-0.269978	-0.956716	-0.0453979	1.66989	0.310361	0	0	0.745575	-0.491809	0.930834	1.1148	0.495245	0	0
0.14	2.82686	1.31396	-1.22178	0.752789	-0.258469	0.913112	-0.501327	0.129948	-0.0667971	0.107963	-0.162216	0	0	0.19411	-0.105892	-0.0917854	0.444064	-0.0798547	0	0	-0.159417	0.122031	0.300791	-0.267794	-0.957197	-0.0426672	1.6711	0.31014	0	0	0.742	-0.495087	0.92713	1.11881	0.496682	0	0
0.15	2.83884	1.31134	-1.23576	0.751465	-0.247487	0.912577	-0.50524	0.123078	-0.0653793	0.133712	-0.158417	0	0	0.184167	-0.0991196	-0.0872672	0.461374	-0.0792565	0	0	-0.162538	0.120386	0.300078	-0.266747	-0.957313	-0.0407452	1.67218	0.310063	0	0	0.738307	-0.497938	0.923725	1.12232	0.498624	0	0
0.16	2.85295	1.30982	-1.251	0.750031	-0.236369	0.912174	-0.506513	0.115312	-0.0626624	0.162983	-0.155988	0	0	0.175411	-0.092137	-0.0860542	0.469479	-0.0847268	0	0	-0.164276	0.117649	0.298509	-0.266388	-0.956146	-0.039174	1.6727	0.310586	0	0	0.734013	-0.500443	0.920137	1.12515	0.50121	0	0
0.17	2.86469	1.30945	-1.26293	0.748599	-0.225228	0.911877	-0.503618	0.107985	-0.0587161	0.197593	-0.154916	0	0	0.168201	-0.0870122	-0.0858734	0.471418	-0.101522	0	0	-0.164799	0.114883	0.295769	-0.266029	-0.953687	-0.0376368	1.67286	0.312596	0	0	0.728725	-0.503468	0.915479	1.12876	0.504413	0	0
0.18	2.87383	1.3103	-1.27144	0.747193	-0.21405	0.911642	-0.496447	0.101162	-0.0557943	0.237189	-0.155857	0	0	0.162758	-0.0834767	-0.0860801	0.473645	-0.125568	0	0	-0.163694	0.112137	0.292049	-0.265474	-0.950314	-0.0355978	1.67238	0.315835	0	0	0.72275	-0.506627	0.910113	1.1325	0.508567	0	0
0.19	2.88215	1.3114	-1.27828	0.745645	-0.202802	0.911481	-0.485983	0.0937818	-0.054454	0.282279	-0.160448	0	0	0.159319	-0.0805301	-0.0872949	0.480926	-0.145877	0	0	-0.161673	0.109723	0.287761	-0.265709	-0.946938	-0.0337459	1.67157	0.31892	0	0	0.716892	-0.50897	0.905149	1.13505	0.513154	0	0
0.2	2.89012	1.31167	-1.28393	0.74385	-0.191504	0.911485	-0.473028	0.0853583	-0.0549336	0.333239	-0.170731	0	0	0.156904	-0.0779693	-0.0869429	0.494625	-0.159439	0	0	-0.160033	0.108059	0.282948	-0.267059	-0.944136	-0.0325678	1.67087	0.321219	0	0	0.711077	-0.510491	0.900592	1.13685	0.516553	0	0
0.21	2.8991	1.3103	-1.28994	0.741891	-0.180241	0.91184	-0.457967	0.0758317	-0.0599449	0.390483	-0.189399	0	0	0.153799	-0.0752888	-0.0841372	0.513283	-0.169305	0	0	-0.160254	0.106781	0.277543	-0.268394	-0.94195	-0.0312602	1.67015	0.323735	0	0	0.705053	-0.511859	0.896114	1.13876	0.519974	0	0
0.22	2.91122	1.30667	-1.29869	0.73985	-0.169171	0.912627	-0.441331	0.0648014	-0.0674323	0.453574	-0.215697	0	0	0.147935	-0.071733	-0.0787583	0.533646	-0.174744	0	0	-0.163409	0.105307	0.272114	-0.269476	-0.940357	-0.0301331	1.66931	0.325409	0	0	0.700519	-0.512812	0.893646	1.13998	0.522639	0	0
0.23	2.92635	1.30155	-1.31013	0.737807	-0.15835	0.913703	-0.422607	0.0525844	-0.0751859	0.521107	-0.248941	0	0	0.139337	-0.0669137	-0.0716534	0.551824	-0.175972	0	0	-0.168806	0.103249	0.266859	-0.270529	-0.939114	-0.0295898	1.66858	0.32646	0	0	0.697788	-0.513512	0.893074	1.14083	0.524286	0	0
0.24	2.94287	1.29608	-1.32284	0.735881	-0.14774	0.914862	-0.401666	0.0398261	-0.0816484	0.591207	-0.288187	0	0	0.129096	-0.0611216	-0.0647505	0.566968	-0.173842	0	0	-0.174874	0.10045	0.262053	-0.271718	-0.93801	-0.0294557	1.66782	0.327296	0	0	0.696709	-0.513988	0.893705	1.14126	0.526572	0	0
0.25	2.95933	1.29082	-1.33587	0.734132	-0.137341	0.915983	-0.378301	0.0273873	-0.085767	0.662091	-0.334205	0	0	0.117858	-0.0551227	-0.0605798	0.579665	-0.169452	0	0	-0.181046	0.0970983	0.257977	-0.272885	-0.936972	-0.0297765	1.66718	0.32805	0	0	0.696627	-0.514577	0.894913	1.14201	0.528943	0	0
0.26	2.97376	1.28648	-1.34785	0.732585	-0.127137	0.916965	-0.351917	0.0162265	-0.0868269	0.730987	-0.387712	0	0	0.10645	-0.0499183	-0.0606791	0.591447	-0.161375	0	0	-0.18671	0.0937202	0.254908	-0.274152	-0.936159	-0.0307416	1.66711	0.328599	0	0	0.697243	-0.516025	0.897357	1.14403	0.529979	0	0
0.27	2.98668	1.28192	-1.35963	0.731254	-0.117179	0.917836	-0.32411	0.00636659	-0.0855436	0.798673	-0.424808	0	0	0.0937425	-0.0462205	-0.0660393	0.602852	-0.151653	0	0	-0.195222	0.0908236	0.252683	-0.276614	-0.936659	-0.0344583	1.67091	0.32861	0	0	0.697011	-0.520166	0.897082	1.1513	0.530648	0	0
0.28	2.99642	1.27803	-1.36971	0.730113	-0.107413	0.918633	-0.294671	-0.00198298	-0.0827428	0.864846	-0.451476	0	0	0.0807931	-0.0440627	-0.0744924	0.613825	-0.139833	0	0	-0.201295	0.0882311	0.251887	-0.277093	-0.937258	-0.0356293	1.6722	0.327589	0	0	0.697626	-0.522686	0.898396	1.15536	0.528969	0	0
0.29	3.00285	1.27427	-1.37759	0.729191	-0.0978563	0.919466	-0.265234	-0.00840198	-0.0799555	0.926865	-0.468395	0	0	0.0672403	-0.0432198	-0.0825892	0.623277	-0.128726	0	0	-0.207055	0.0864333	0.252028	-0.276597	-0.938129	-0.0359626	1.67318	0.326468	0	0	0.698354	-0.52483	0.899534	1.15857	0.526075	0	0
0.3	3.00583	1.2708	-1.38292	0.728522	-0.0884659	0.92041	-0.235384	-0.0131337	-0.0786382	0.984682	-0.480814	0	0	0.053264	-0.0435296	-0.0888933	0.63049	-0.117617	0	0	-0.212387	0.0853375	0.252653	-0.274764	-0.93883	-0.0351882	1.67369	0.325138	0	0	0.699026	-0.527148	0.900643	1.16144	0.522483	0	0
0.31	3.00541	1.26765	-1.38551	0.728074	-0.0792218	0.921556	-0.205231	-0.0164862	-0.0781838	1.03822	-0.481208	0	0	0.0389327	-0.0451415	-0.093944	0.635262	-0.107938	0	0	-0.21713	0.0850703	0.253541	-0.271392	-0.939427	-0.0327769	1.67339	0.323778	0	0	0.699605	-0.529274	0.901807	1.16319	0.519873	0	0
0.32	3.00178	1.26475	-1.38485	0.72771	-0.0700759	0.922957	-0.175656	-0.0185149	-0.0785748	1.0867	-0.463502	0	0	0.0240458	-0.0479135	-0.0971176	0.636072	-0.101113	0	0	-0.221221	0.0859315	0.254052	-0.266871	-0.939827	-0.028934	1.6723	0.322591	0	0	0.699283	-0.530651	0.902045	1.16347	0.517749	0	0
0.33	2.99597	1.26242	-1.38138	0.727292	-0.060997	0.924531	-0.146617	-0.019856	-0.0797807	1.12995	-0.426949	0	0	0.0087151	-0.0509437	-0.0974657	0.632223	-0.0966828	0	0	-0.224102	0.0878044	0.253609	-0.26117	-0.940437	-0.0232374	1.67023	0.321262	0	0	0.698167	-0.531261	0.901623	1.16216	0.516731	0	0
